<svg width="505" height="338" viewBox="0 0 505 338" fill="none" xmlns="http://www.w3.org/2000/svg">
<path d="M248.686 14.5756L194.566 76.2959L213.122 133.016L287.38 128.386L254.979 76.2959C314.586 79.0741 342.815 96.5112 352.38 105C395.173 143.199 381.26 175.849 362.38 199C314.13 258.164 223.933 278.483 171.911 275.396C57.126 275.396 46.3801 210 54.3801 186C54.3801 159 93.9494 127.961 120.38 116L115.274 138H163L182 79.7686L198.241 33.4663L147.997 42.7267L136.67 76.2959C30.9484 116.81 5.77704 162.325 2 209.785C2 280.396 95.3229 315.283 106.392 319C171.911 341 234.381 340.901 315.392 326C334.271 322.527 428.667 292.759 487.82 216.361C508.23 190 516.38 123.756 458.872 79.7686C420.01 50.043 323.782 43.4985 281.409 42.7267L315.392 3L248.686 14.5756Z" fill="white" stroke="white" stroke-width="3"/>
</svg>
